{
  "accessors": [
    {
      "bufferView": 0,
      "componentType": 5125,
      "count": 62784,
      "type": "SCALAR"
    },
    {
      "bufferView": 1,
      "componentType": 5126,
      "count": 11764,
      "max": [
        0.602702140808105,
        1.0,
        0.603671133518219
      ],
      "min": [
        -0.602702140808105,
        -1.0,
        -0.603670954704285
      ],
      "type": "VEC3"
    },
    {
      "bufferView": 2,
      "componentType": 5126,
      "count": 11764,
      "type": "VEC3"
    },
    {
      "bufferView": 3,
      "componentType": 5126,
      "count": 11764,
      "type": "VEC2"
    }
  ],
  "asset": {
    "generator": "Substance Painter 2018.3.2",
    "version": "2.0"
  },
  "bufferViews": [
    {
      "buffer": 0,
      "byteLength": 251136,
      "target": 34963
    },
    {
      "buffer": 0,
      "byteLength": 141168,
      "byteOffset": 251136,
      "target": 34962
    },
    {
      "buffer": 0,
      "byteLength": 141168,
      "byteOffset": 392304,
      "target": 34962
    },
    {
      "buffer": 0,
      "byteLength": 94112,
      "byteOffset": 533472,
      "target": 34962
    }
  ],
  "buffers": [
    {
      "byteLength": 627584,
      "uri": "fj.bin"
    }
  ],
  "images": [
    {
      "uri": "1001_baseColor.png"
    },
    {
      "uri": "1001_occlusionRoughnessMetallic.png"
    },
    {
      "uri": "1001_normal.png"
    }
  ],
  "materials": [
    {
      "alphaMode": "OPAQUE",
      "name": "1001",
      "normalTexture": {
        "index": 2
      },
      "occlusionTexture": {
        "index": 1
      },
      "pbrMetallicRoughness": {
        "baseColorTexture": {
          "index": 0
        },
        "metallicRoughnessTexture": {
          "index": 1
        }
      }
    }
  ],
  "meshes": [
    {
      "name": "Box009_1001",
      "primitives": [
        {
          "attributes": {
            "NORMAL": 2,
            "POSITION": 1,
            "TEXCOORD_0": 3
          },
          "indices": 0,
          "material": 0,
          "mode": 4
        }
      ]
    }
  ],
  "nodes": [
    {
      "children": [
        1
      ],
      "name": "1.obj",
      "scale": [
        12.4899997711182,
        12.4899997711182,
        12.4899997711182
      ],
      "translation": [
        -0.0931501388549805,
        12.5081996917725,
        30.2085494995117
      ]
    },
    {
      "children": [
        2
      ],
      "name": "g Box009"
    },
    {
      "mesh": 0,
      "name": "Box009_1001"
    }
  ],
  "samplers": [
    {
      "magFilter": 9729,
      "minFilter": 9985,
      "wrapS": 10497,
      "wrapT": 10497
    }
  ],
  "scene": 0,
  "scenes": [
    {
      "name": "Scene",
      "nodes": [
        0
      ]
    }
  ],
  "textures": [
    {
      "sampler": 0,
      "source": 0
    },
    {
      "sampler": 0,
      "source": 1
    },
    {
      "sampler": 0,
      "source": 2
    }
  ]
}